<svg width="118" height="118" viewBox="0 0 118 118" fill="none" xmlns="http://www.w3.org/2000/svg">
<g filter="url(#filter0_di_2_981)">
<circle cx="59" cy="59" r="53" fill="#201E1E"/>
<circle cx="59" cy="59" r="51" stroke="#55EC20" stroke-opacity="0.5" stroke-width="4" stroke-dasharray="2 2"/>
</g>
<path d="M60.4322 48.5938L60.217 49.2497H60.9073H72.988C74.5389 49.2497 75.5018 50.9351 74.7234 52.2659L74.7223 52.2678L56.2976 84.0922C55.9285 84.7299 55.258 85.099 54.5529 85.099C53.27 85.099 52.2987 83.8994 52.6002 82.6261C52.6003 82.626 52.6003 82.626 52.6003 82.626L57.4262 62.2647L57.5721 61.6494H56.9397H44.5136C43.2989 61.6494 42.3584 60.5765 42.5177 59.3678C42.5177 59.3676 42.5177 59.3675 42.5177 59.3674L45.8675 34.2441C45.8675 34.244 45.8675 34.244 45.8675 34.2439C46.0017 33.2469 46.8572 32.5 47.8635 32.5H62.9382C64.247 32.5 65.2123 33.749 64.8869 35.0206L60.4322 48.5938Z" fill="#201E1E" stroke="#55EC20"/>
<defs>
<filter id="filter0_di_2_981" x="0" y="0" width="118" height="118" filterUnits="userSpaceOnUse" color-interpolation-filters="sRGB">
<feFlood flood-opacity="0" result="BackgroundImageFix"/>
<feColorMatrix in="SourceAlpha" type="matrix" values="0 0 0 0 0 0 0 0 0 0 0 0 0 0 0 0 0 0 127 0" result="hardAlpha"/>
<feOffset/>
<feGaussianBlur stdDeviation="3"/>
<feComposite in2="hardAlpha" operator="out"/>
<feColorMatrix type="matrix" values="0 0 0 0 0 0 0 0 0 0 0 0 0 0 0 0 0 0 0.25 0"/>
<feBlend mode="normal" in2="BackgroundImageFix" result="effect1_dropShadow_2_981"/>
<feBlend mode="normal" in="SourceGraphic" in2="effect1_dropShadow_2_981" result="shape"/>
<feColorMatrix in="SourceAlpha" type="matrix" values="0 0 0 0 0 0 0 0 0 0 0 0 0 0 0 0 0 0 127 0" result="hardAlpha"/>
<feMorphology radius="2" operator="erode" in="SourceAlpha" result="effect2_innerShadow_2_981"/>
<feOffset/>
<feGaussianBlur stdDeviation="4"/>
<feComposite in2="hardAlpha" operator="arithmetic" k2="-1" k3="1"/>
<feColorMatrix type="matrix" values="0 0 0 0 0.358333 0 0 0 0 0.358333 0 0 0 0 0.358333 0 0 0 0.25 0"/>
<feBlend mode="normal" in2="shape" result="effect2_innerShadow_2_981"/>
</filter>
</defs>
</svg>
